<svg width="75" height="70" viewBox="0 0 75 70" fill="none" xmlns="http://www.w3.org/2000/svg">
<path id="Path 2" fill-rule="evenodd" clip-rule="evenodd" d="M-0.00390625 1.99998L0.00435431 0C1.02272 0.00420616 2.03014 0.0189311 3.02688 0.0443559L2.97588 2.04371C1.99352 2.01865 1.00034 2.00413 -0.00390625 1.99998ZM66.1881 56.0769C66.1461 55.725 66.1026 55.375 66.0574 55.0268L68.0408 54.7696C68.0924 55.1673 68.1419 55.5674 68.1894 55.9699L74.2426 55.6461L68.0002 70L60.2626 56.3938L66.1881 56.0769ZM6.04714 0.155913L5.94989 2.15355C6.95199 2.20233 7.94228 2.26278 8.92093 2.33508L9.06828 0.340511C8.07279 0.266969 7.0658 0.205504 6.04714 0.155913ZM11.8827 2.59384L12.0842 0.604022C13.1005 0.706934 14.1041 0.823256 15.0951 0.953213L14.8351 2.93624C13.8637 2.80886 12.8796 2.6948 11.8827 2.59384ZM18.1102 1.3972L17.7867 3.37087C18.7725 3.53244 19.7444 3.7087 20.7024 3.89987L21.0938 1.93854C20.113 1.74283 19.1185 1.56246 18.1102 1.3972ZM23.5909 4.53173L24.0551 2.58635C25.0518 2.82417 26.0332 3.07903 26.9994 3.3512L26.4571 5.27628C25.5171 5.01147 24.5617 4.76337 23.5909 4.53173ZM29.9284 4.24495L29.3025 6.1445C30.2474 6.45581 31.1754 6.7854 32.0866 7.13353L32.8004 5.26525C31.8599 4.90592 30.9025 4.56592 29.9284 4.24495ZM34.8134 8.25303L35.6193 6.42259C36.5579 6.83584 37.4781 7.27006 38.3799 7.72555L37.4782 9.51075C36.6081 9.07129 35.7198 8.65214 34.8134 8.25303ZM41.0656 9.17679L40.0657 10.9089C40.9197 11.4019 41.7544 11.9165 42.5695 12.4529L43.669 10.7822C42.8211 10.2242 41.9532 9.68919 41.0656 9.17679ZM44.995 14.1569L46.1944 12.5565C47.0124 13.1695 47.8097 13.8064 48.586 14.4672L47.2896 15.9901C46.5449 15.3562 45.78 14.7452 44.995 14.1569ZM50.8777 16.5469L49.4872 17.9844C50.1893 18.6636 50.8712 19.3658 51.5327 20.0914L53.0107 18.744C52.321 17.9874 51.6099 17.2551 50.8777 16.5469ZM53.4456 22.3261L55.0045 21.0732C55.6401 21.864 56.2548 22.6784 56.8486 23.5166L55.2165 24.6727C54.6462 23.8674 54.0558 23.0853 53.4456 22.3261ZM58.5365 26.0545L56.8398 27.1133C57.3545 27.938 57.8503 28.7847 58.327 29.6535L60.0804 28.6914C59.5857 27.7899 59.0711 26.911 58.5365 26.0545ZM59.6742 32.2733L61.4763 31.4058C61.9126 32.3121 62.3303 33.2392 62.7295 34.1873L60.8861 34.9633C60.5 34.046 60.0959 33.1493 59.6742 32.2733ZM63.8519 37.0431L61.9739 37.7309C62.3084 38.6443 62.6267 39.5767 62.9284 40.5282L64.8349 39.9236C64.5243 38.9443 64.1966 37.9842 63.8519 37.0431ZM63.7636 43.3641L65.6932 42.8379C65.9562 43.8024 66.2038 44.7842 66.4358 45.7835L64.4876 46.2358C64.2613 45.2612 64.0199 44.3039 63.7636 43.3641ZM67.0728 48.7707L65.1098 49.1534C65.2965 50.1114 65.4696 51.0851 65.629 52.0748L67.6035 51.7568C67.4407 50.7456 67.2638 49.7503 67.0728 48.7707Z" fill="#F698AD"/>
</svg>
