<svg width="24" height="24" viewBox="0 0 24 24" fill="none" xmlns="http://www.w3.org/2000/svg">
<g id="Group 5">
<circle id="Oval" cx="12" cy="12" r="12" fill="#6BBC13"/>
<path id="Path" d="M16.1844 9.19508L15.46 8.4167C15.3607 8.30989 15.2399 8.25647 15.0979 8.25647C14.9557 8.25647 14.8349 8.30989 14.7356 8.4167L11.2412 12.177L9.67515 10.4886C9.57571 10.3817 9.45498 10.3284 9.31298 10.3284C9.17089 10.3284 9.05016 10.3817 8.95071 10.4886L8.22629 11.267C8.12685 11.3738 8.07715 11.5036 8.07715 11.6562C8.07715 11.8087 8.12685 11.9386 8.22629 12.0454L10.1545 14.1172L10.879 14.8956C10.9784 15.0025 11.0992 15.0559 11.2412 15.0559C11.3832 15.0559 11.504 15.0024 11.6034 14.8956L12.3279 14.1172L16.1844 9.97351C16.2838 9.86666 16.3336 9.73692 16.3336 9.58426C16.3336 9.43169 16.2838 9.30192 16.1844 9.19508Z" fill="white"/>
</g>
</svg>
