<svg width="145" height="23" viewBox="0 0 145 23" fill="none" xmlns="http://www.w3.org/2000/svg">
<g id="Group 3 Copy">
<mask id="mask0_0_501" style="mask-type:luminance" maskUnits="userSpaceOnUse" x="0" y="0" width="145" height="23">
<path id="Clip 2" fill-rule="evenodd" clip-rule="evenodd" d="M0.263672 0H144.736V23H0.263672V0Z" fill="white"/>
</mask>
<g mask="url(#mask0_0_501)">
<path id="Fill 1" fill-rule="evenodd" clip-rule="evenodd" d="M12.106 5.90272C12.106 5.50264 11.7935 5.17822 11.4079 5.17822H5.5903V6.798H12.106V5.90272ZM12.106 8.02302H5.5903V9.6428H11.4079C11.7935 9.6428 12.106 9.31838 12.106 8.91807V8.02302ZM18.2706 21.7537C18.4696 22.1038 18.2153 22.5372 17.8113 22.5372H12.3723C12.1789 22.5372 12.0009 22.4321 11.9085 22.2632L8.24686 15.5726H6.04244V22.0122C6.04244 22.3021 5.80625 22.5372 5.51467 22.5372H0.79168C0.500101 22.5372 0.263672 22.3021 0.263672 22.0122V0.780967C0.263672 0.491257 0.500101 0.256157 0.79168 0.256157H9.49882C12.2885 0.256157 14.4117 0.949656 15.8363 2.36743C17.2607 3.78381 17.9891 5.59334 17.9891 7.82355C17.9891 10.6283 16.7755 13.1605 14.1376 14.4873L18.2706 21.7537ZM136.472 13.6552L134.35 7.05369L132.137 13.6552H136.472ZM144.199 22.608H139.532C139.298 22.608 139.091 22.4576 139.021 22.2364L137.836 18.5387H130.712L129.499 22.2399C129.427 22.4595 129.221 22.608 128.989 22.608H124.294C123.922 22.608 123.663 22.2396 123.791 21.8914L131.583 0.681929C131.661 0.471588 131.862 0.331593 132.087 0.331593H136.609C136.836 0.331593 137.038 0.473671 137.114 0.686325L144.705 21.8958C144.829 22.2431 144.57 22.608 144.199 22.608ZM120.718 0.331593H116.092C115.795 0.331593 115.555 0.570395 115.555 0.864964V22.0746C115.555 22.3692 115.795 22.608 116.092 22.608H120.718C121.014 22.608 121.255 22.3692 121.255 22.0746V0.864964C121.255 0.570395 121.014 0.331593 120.718 0.331593ZM110.594 0.331593H106.089C105.793 0.331593 105.553 0.570395 105.553 0.864964V12.4193L95.3462 0.518794C95.2442 0.400087 95.0948 0.331593 94.9378 0.331593H91.6599C91.3636 0.331593 91.1235 0.570395 91.1235 0.864964V22.0746C91.1235 22.3692 91.3636 22.608 91.6599 22.608H96.1346C96.4308 22.608 96.671 22.3692 96.671 22.0746V10.6709L106.696 22.4197C106.798 22.5393 106.947 22.608 107.105 22.608H110.594C110.891 22.608 111.131 22.3692 111.131 22.0746V0.864964C111.131 0.570395 110.891 0.331593 110.594 0.331593ZM86.7989 0.331593H71.1474V22.608H86.7684C87.0646 22.608 87.3048 22.3692 87.3048 22.0746V17.9266C87.3048 17.6318 87.0646 17.393 86.7684 17.393H76.8465V14.0169H86.0105C86.307 14.0169 86.5471 13.7781 86.5471 13.4835V9.36559C86.5471 9.07102 86.307 8.83222 86.0105 8.83222H76.8465V5.54637H86.7989C87.0951 5.54637 87.3353 5.30757 87.3353 5.013V0.864964C87.3353 0.570395 87.0951 0.331593 86.7989 0.331593ZM63.6608 10.038C63.0848 9.79691 62.2057 9.46532 61.0842 9.07333L59.1137 8.34998C57.9313 7.89783 57.3251 7.35521 57.3251 6.69202C57.3251 5.87796 58.174 5.24509 59.7199 5.24509C61.2348 5.24509 63.16 5.8451 64.5045 6.74547C64.7615 6.91717 65.1084 6.85006 65.2701 6.58766L67.354 3.20555C67.4955 2.97601 67.4457 2.67334 67.2309 2.50928C65.0426 0.836271 62.5256 0 59.6291 0C57.1734 0 55.1728 0.662954 53.6267 1.95924C52.0809 3.25553 51.2925 4.9135 51.2925 6.87274C51.2925 9.43501 52.5353 11.3644 54.9911 12.6605C55.6275 12.9921 56.5977 13.354 57.8406 13.8059L59.8411 14.4693C61.0538 14.9212 61.6602 15.4942 61.6602 16.1874C61.6602 17.2424 60.5081 17.8151 59.1439 17.8151C56.9644 17.8151 54.9909 17.0211 53.2232 15.4331C52.9828 15.2169 52.6063 15.2604 52.423 15.5261L50.1725 18.7879C50.03 18.9945 50.048 19.2747 50.2232 19.4545C52.5184 21.8092 55.4795 23 59.053 23C61.7509 23 63.9032 22.3368 65.5101 21.0104C67.1167 19.654 67.9353 17.9659 67.9353 15.8859C67.9353 13.2031 66.5105 11.2438 63.6608 10.038ZM47.4228 0.331593H31.7713V22.608H47.3923C47.6886 22.608 47.9287 22.3692 47.9287 22.0746V17.9266C47.9287 17.6318 47.6886 17.393 47.3923 17.393H37.4705V14.0169H46.6344C46.9309 14.0169 47.171 13.7781 47.171 13.4835V9.36559C47.171 9.07102 46.9309 8.83222 46.6344 8.83222H37.4705V5.54637H47.4228C47.719 5.54637 47.9592 5.30757 47.9592 5.013V0.864964C47.9592 0.570395 47.719 0.331593 47.4228 0.331593ZM27.3459 0.864964V22.0746C27.3459 22.3692 27.1058 22.608 26.8095 22.608H22.1834C21.8871 22.608 21.647 22.3692 21.647 22.0746V0.864964C21.647 0.570395 21.8871 0.331593 22.1834 0.331593H26.8095C27.1058 0.331593 27.3459 0.570395 27.3459 0.864964Z" fill="white"/>
</g>
</g>
</svg>
